<svg xmlns="http://www.w3.org/2000/svg" xmlns:xlink="http://www.w3.org/1999/xlink" zoomAndPan="magnify" preserveAspectRatio="xMidYMid meet" version="1.0" viewBox="1 474.62 1022 238.08"><defs><clipPath id="fdf3555286"><path d="M 1 474.617188 L 1023 474.617188 L 1023 575.859375 L 1 575.859375 Z M 1 474.617188 " clip-rule="nonzero"/></clipPath></defs><g clip-path="url(#fdf3555286)"><path fill="#1b4a9c" d="M 987.402344 486.523438 C 912.851562 511.421875 859.808594 526.648438 801.210938 539.855469 C 733.515625 555.15625 685.382812 561.433594 628.730469 562.371094 C 567.53125 563.308594 519.542969 558.332031 445.066406 543.105469 C 415.042969 536.96875 380.1875 529.101562 306.070312 511.710938 C 232.53125 494.464844 187.066406 485.296875 158.921875 482.195312 C 108.910156 476.566406 58.105469 481.039062 10.476562 495.257812 L 1.597656 497.855469 L 1.453125 605.238281 L 1.238281 712.695312 L 1022.761719 712.695312 L 1022.761719 593.621094 C 1022.761719 528.09375 1022.691406 474.617188 1022.617188 474.6875 C 1022.472656 474.761719 1006.667969 480.101562 987.402344 486.523438 Z M 987.402344 486.523438 " fill-opacity="1" fill-rule="nonzero"/></g></svg>