<svg xmlns="http://www.w3.org/2000/svg" xmlns:xlink="http://www.w3.org/1999/xlink" width="1366" zoomAndPan="magnify" viewBox="0 0 1024.5 576" height="768" preserveAspectRatio="xMidYMid meet" version="1.0"><defs><clipPath id="8f93af8e72"><path d="M 1 0.140625 L 1023 0.140625 L 1023 101.546875 L 1 101.546875 Z M 1 0.140625 " clip-rule="nonzero"/></clipPath></defs><g clip-path="url(#8f93af8e72)"><path fill="#1b4a9c" d="M 36.601562 89.640625 C 111.148438 64.742188 164.191406 49.515625 222.789062 36.308594 C 290.484375 21.007812 338.617188 14.730469 395.269531 13.792969 C 456.46875 12.855469 504.457031 17.832031 578.933594 33.0625 C 608.957031 39.195312 643.8125 47.0625 717.929688 64.453125 C 791.46875 81.703125 836.933594 90.867188 865.078125 93.96875 C 915.089844 99.597656 965.894531 95.125 1013.523438 80.90625 L 1022.402344 78.308594 L 1022.546875 -29.074219 L 1022.761719 -136.53125 L 1.238281 -136.53125 L 1.238281 -17.457031 C 1.238281 48.070312 1.308594 101.546875 1.382812 101.476562 C 1.527344 101.402344 17.332031 96.0625 36.601562 89.640625 Z M 36.601562 89.640625 " fill-opacity="1" fill-rule="nonzero"/></g></svg>